<?xml version="1.0" encoding="utf-8"?>
<!-- Generator: Adobe Illustrator 16.0.0, SVG Export Plug-In . SVG Version: 6.00 Build 0)  -->
<!DOCTYPE svg PUBLIC "-//W3C//DTD SVG 1.1//EN" "http://www.w3.org/Graphics/SVG/1.1/DTD/svg11.dtd">
<svg version="1.1" id="Layer_1" xmlns="http://www.w3.org/2000/svg" xmlns:xlink="http://www.w3.org/1999/xlink" x="0px" y="0px"
	 width="841.89px" height="595.28px" viewBox="0 0 841.89 595.28" enable-background="new 0 0 841.89 595.28" xml:space="preserve">
<linearGradient id="SVGID_1_" gradientUnits="userSpaceOnUse" x1="463.3008" y1="318.793" x2="348.692" y2="252.6236">
	<stop  offset="0" style="stop-color:#4F00EC"/>
	<stop  offset="0.1689" style="stop-color:#4E00E3"/>
	<stop  offset="0.4445" style="stop-color:#4B00CB"/>
	<stop  offset="0.7902" style="stop-color:#4700A3"/>
	<stop  offset="1" style="stop-color:#440088"/>
</linearGradient>
<path fill="url(#SVGID_1_)" d="M373.236,258.171v42.631c0,5.305,1.343,10.404,3.884,14.744c5.141,8.771,15.023,20.578,33.226,28.303
	c18.199-7.725,28.082-19.527,33.227-28.299c2.537-4.342,3.882-9.445,3.882-14.748v-42.631c-10.495-2.446-23.699-6.583-37.108-13.535
	C396.938,251.588,383.732,255.724,373.236,258.171z M427.35,270.949c2.279,2.28,3.42,5.061,3.42,8.624
	c0,5.631-2.993,8.767-6.557,10.762c5.773,2.21,9.337,5.56,9.337,12.402c0,9.123-7.413,13.686-18.674,13.686h-23.734V266.53h23.164
	C420.008,266.53,424.498,268.098,427.35,270.949z M419.865,281.284c0-3.279-2.566-5.132-7.199-5.132h-10.833V286.7h10.12
	C416.801,286.7,419.865,285.132,419.865,281.284z M422.645,301.24c0-3.35-2.494-5.418-8.125-5.418h-12.687v10.977h13.043
	C419.723,306.799,422.645,305.088,422.645,301.24z M410.346,223.098c-26.392,16.685-55.816,19.414-55.816,19.414v58.291
	c0,8.498,2.154,16.869,6.449,24.197c7.223,12.328,21.736,29.463,49.367,38.852c27.633-9.389,42.146-26.523,49.37-38.852
	c4.294-7.328,6.446-15.699,6.446-24.197v-58.291C466.162,242.512,436.737,239.783,410.346,223.098z M456.454,300.803
	c0,6.902-1.772,13.574-5.118,19.301c-6.252,10.66-18.387,24.898-40.99,33.439c-22.604-8.541-34.738-22.779-40.992-33.449
	c-3.347-5.717-5.117-12.389-5.117-19.291v-49.938c10.368-1.929,28.387-6.446,46.109-16.462
	c17.723,10.016,35.738,14.533,46.108,16.462V300.803z"/>
</svg>
