<?xml version="1.0" encoding="UTF-8" standalone="no"?>
<svg
   xmlns:dc="http://purl.org/dc/elements/1.1/"
   xmlns:cc="http://creativecommons.org/ns#"
   xmlns:rdf="http://www.w3.org/1999/02/22-rdf-syntax-ns#"
   xmlns:svg="http://www.w3.org/2000/svg"
   xmlns="http://www.w3.org/2000/svg"
   xml:space="preserve"
   enable-background="new 0 0 841.89 595.28"
   viewBox="0 0 111.632 140.75399"
   height="140.754"
   width="111.632"
   y="0px"
   x="0px"
   id="Layer_1"
   version="1.1"><metadata
   id="metadata20"><rdf:RDF><cc:Work
       rdf:about=""><dc:format>image/svg+xml</dc:format><dc:type
         rdf:resource="http://purl.org/dc/dcmitype/StillImage" /><dc:title></dc:title></cc:Work></rdf:RDF></metadata><defs
   id="defs18" />
<linearGradient
   gradientTransform="translate(-354.53,-223.098)"
   y2="252.6236"
   x2="348.69199"
   y1="318.793"
   x1="463.30081"
   gradientUnits="userSpaceOnUse"
   id="SVGID_1_">
	<stop
   id="stop2"
   style="stop-color:#4F00EC"
   offset="0" />
	<stop
   id="stop4"
   style="stop-color:#4E00E3"
   offset="0.1689" />
	<stop
   id="stop6"
   style="stop-color:#4B00CB"
   offset="0.4445" />
	<stop
   id="stop8"
   style="stop-color:#4700A3"
   offset="0.7902" />
	<stop
   id="stop10"
   style="stop-color:#440088"
   offset="1" />
</linearGradient>
<path
   style="fill:url(#SVGID_1_)"
   id="path13"
   d="m 18.706,35.073 v 42.631 c 0,5.305 1.343,10.404 3.884,14.744 5.141,8.771 15.023,20.578 33.226,28.303 18.199,-7.725 28.082,-19.527 33.227,-28.299 2.537,-4.342 3.882,-9.445 3.882,-14.748 V 35.073 C 82.43,32.627 69.226,28.49 55.817,21.538 42.408,28.49 29.202,32.626 18.706,35.073 Z M 72.82,47.851 c 2.279,2.28 3.42,5.061 3.42,8.624 0,5.631 -2.993,8.767 -6.557,10.762 5.773,2.21 9.337,5.56 9.337,12.402 0,9.123 -7.413,13.686 -18.674,13.686 H 36.612 V 43.432 h 23.164 c 5.702,0 10.192,1.568 13.044,4.419 z m -7.485,10.335 c 0,-3.279 -2.566,-5.132 -7.199,-5.132 H 47.303 v 10.548 h 10.12 c 4.848,0 7.912,-1.568 7.912,-5.416 z m 2.78,19.956 c 0,-3.35 -2.494,-5.418 -8.125,-5.418 H 47.303 v 10.977 h 13.043 c 4.847,0 7.769,-1.711 7.769,-5.559 z M 55.816,0 C 29.424,16.685 0,19.414 0,19.414 v 58.291 c 0,8.498 2.154,16.869 6.449,24.197 7.223,12.328 21.736,29.463 49.367,38.852 27.633,-9.389 42.146,-26.523 49.37,-38.852 4.294,-7.328 6.446,-15.699 6.446,-24.197 V 19.414 c 0,0 -29.425,-2.729 -55.816,-19.414 z m 46.108,77.705 c 0,6.902 -1.772,13.574 -5.118,19.301 -6.252,10.66 -18.387,24.898 -40.99,33.439 C 33.212,121.904 21.078,107.666 14.824,96.996 11.477,91.279 9.707,84.607 9.707,77.705 V 27.767 c 10.368,-1.929 28.387,-6.446 46.109,-16.462 17.723,10.016 35.738,14.533 46.108,16.462 z" />
</svg>