<?xml version="1.0" encoding="utf-8"?>
<!-- Generator: Adobe Illustrator 16.0.0, SVG Export Plug-In . SVG Version: 6.00 Build 0)  -->
<!DOCTYPE svg PUBLIC "-//W3C//DTD SVG 1.1//EN" "http://www.w3.org/Graphics/SVG/1.1/DTD/svg11.dtd">
<svg version="1.1" id="Layer_1" xmlns="http://www.w3.org/2000/svg" xmlns:xlink="http://www.w3.org/1999/xlink" x="0px" y="0px"
	 width="841.89px" height="595.28px" viewBox="0 0 841.89 595.28" enable-background="new 0 0 841.89 595.28" xml:space="preserve">
<linearGradient id="SVGID_1_" gradientUnits="userSpaceOnUse" x1="374.2896" y1="322.793" x2="259.6799" y2="256.6231">
	<stop  offset="0" style="stop-color:#4F00EC"/>
	<stop  offset="0.1689" style="stop-color:#4E00E3"/>
	<stop  offset="0.4445" style="stop-color:#4B00CB"/>
	<stop  offset="0.7902" style="stop-color:#4700A3"/>
	<stop  offset="1" style="stop-color:#440088"/>
</linearGradient>
<path fill="url(#SVGID_1_)" d="M284.225,262.171v42.631c0,5.305,1.343,10.404,3.884,14.744c5.141,8.771,15.023,20.578,33.226,28.303
	c18.199-7.725,28.082-19.527,33.227-28.299c2.537-4.342,3.882-9.445,3.882-14.748v-42.631c-10.495-2.446-23.699-6.583-37.108-13.535
	C307.926,255.588,294.721,259.724,284.225,262.171z M338.338,274.949c2.279,2.28,3.42,5.061,3.42,8.624
	c0,5.631-2.993,8.767-6.557,10.762c5.773,2.21,9.337,5.56,9.337,12.402c0,9.123-7.413,13.686-18.674,13.686H302.13V270.53h23.164
	C330.996,270.53,335.486,272.098,338.338,274.949z M330.854,285.284c0-3.279-2.566-5.132-7.199-5.132h-10.833V290.7h10.12
	C327.789,290.7,330.854,289.132,330.854,285.284z M333.633,305.24c0-3.35-2.494-5.418-8.125-5.418h-12.687v10.977h13.043
	C330.711,310.799,333.633,309.088,333.633,305.24z M321.334,227.098c-26.392,16.685-55.816,19.414-55.816,19.414v58.291
	c0,8.498,2.154,16.869,6.449,24.197c7.223,12.328,21.736,29.463,49.367,38.852c27.633-9.389,42.146-26.523,49.37-38.852
	c4.294-7.328,6.446-15.699,6.446-24.197v-58.291C377.15,246.512,347.726,243.783,321.334,227.098z M367.442,304.803
	c0,6.902-1.772,13.574-5.118,19.301c-6.252,10.66-18.387,24.898-40.99,33.439c-22.604-8.541-34.738-22.779-40.992-33.449
	c-3.347-5.717-5.117-12.389-5.117-19.291v-49.938c10.368-1.929,28.387-6.446,46.109-16.462
	c17.723,10.016,35.738,14.533,46.108,16.462V304.803z"/>
<rect x="395.589" y="227.104" width="1.699" height="140.766"/>
<g>
	<path d="M415.865,261.572h19.315c4.755,0,8.499,1.308,10.877,3.685c1.901,1.902,2.853,4.22,2.853,7.191
		c0,4.695-2.496,7.311-5.468,8.975c4.814,1.842,7.786,4.636,7.786,10.341c0,7.607-6.182,11.411-15.572,11.411h-19.791V261.572z
		 M433.22,278.391c4.042,0,6.598-1.308,6.598-4.517c0-2.734-2.14-4.279-6.003-4.279h-9.034v8.796H433.22z M435.656,295.151
		c4.042,0,6.479-1.426,6.479-4.636c0-2.793-2.08-4.517-6.775-4.517H424.78v9.153H435.656z"/>
	<path d="M467.864,270.011h-12.659v-8.439h34.472v8.439h-12.659v33.164h-9.153V270.011z"/>
	<path d="M493.061,282.373c0-11.827,8.914-21.515,21.692-21.515c7.846,0,12.243,2.972,16.106,6.775l-5.468,6.3
		c-3.209-2.912-5.943-4.636-10.698-4.636c-7.013,0-12.064,5.825-12.064,13.075c0,7.132,4.933,13.076,12.064,13.076
		c4.755,0,7.667-1.902,10.936-4.874l5.825,6.24c-4.279,4.576-9.034,7.072-17.058,7.072
		C502.153,303.888,493.061,294.438,493.061,282.373z"/>
	<path d="M537.451,293.666h9.629v9.509h-9.629V293.666z"/>
</g>
<g>
	<path d="M416.017,330.31l1.288-1.525c1.919,1.735,3.76,2.604,6.31,2.604c2.472,0,4.102-1.314,4.102-3.182
		c0-1.709-0.92-2.682-4.785-3.496c-4.232-0.921-6.178-2.288-6.178-5.363c0-2.893,2.55-5.022,6.047-5.022
		c2.682,0,4.601,0.763,6.467,2.262l-1.209,1.604c-1.709-1.394-3.418-1.998-5.311-1.998c-2.393,0-3.917,1.314-3.917,3.023
		c0,1.735,0.946,2.708,4.995,3.575c4.101,0.895,5.994,2.393,5.994,5.259c0,3.154-2.629,5.205-6.283,5.205
		C420.617,333.254,418.225,332.281,416.017,330.31z"/>
	<path d="M435.634,314.588h13.304v1.893h-11.227v6.283h10.043v1.894h-10.043v6.441h11.357v1.893h-13.435V314.588z"/>
	<path d="M454.017,323.789c0-5.205,3.891-9.517,9.307-9.517c3.339,0,5.284,1.235,7.125,2.971l-1.367,1.472
		c-1.551-1.472-3.286-2.523-5.784-2.523c-4.075,0-7.125,3.312-7.125,7.598c0,4.26,3.076,7.599,7.125,7.599
		c2.524,0,4.181-0.973,5.941-2.655l1.367,1.445c-1.919,1.946-4.022,3.129-7.361,3.129
		C457.934,333.307,454.017,329.126,454.017,323.789z"/>
	<path d="M475.527,325.288v-10.7h2.077v10.568c0,3.97,2.104,6.205,5.626,6.205c3.392,0,5.548-2.051,5.548-6.073v-10.7h2.077v10.542
		c0,5.363-3.076,8.15-7.678,8.15C478.63,333.28,475.527,330.493,475.527,325.288z"/>
	<path d="M497.354,314.588h7.914c2.261,0,4.075,0.684,5.231,1.84c0.895,0.895,1.42,2.183,1.42,3.681c0,3.05-2.104,4.838-4.995,5.363
		l5.652,7.52h-2.55l-5.338-7.151h-5.258v7.151h-2.077V314.588z M505.083,323.974c2.761,0,4.732-1.42,4.732-3.839
		c0-2.261-1.735-3.628-4.706-3.628h-5.679v7.467H505.083z"/>
	<path d="M517.944,314.588h13.304v1.893h-11.227v6.283h10.043v1.894h-10.043v6.441h11.357v1.893h-13.435V314.588z"/>
</g>
</svg>
