<?xml version="1.0" encoding="UTF-8" standalone="no"?>
<svg
   xmlns:dc="http://purl.org/dc/elements/1.1/"
   xmlns:cc="http://creativecommons.org/ns#"
   xmlns:rdf="http://www.w3.org/1999/02/22-rdf-syntax-ns#"
   xmlns:svg="http://www.w3.org/2000/svg"
   xmlns="http://www.w3.org/2000/svg"
   xml:space="preserve"
   enable-background="new 0 0 841.89 595.28"
   viewBox="0 0 281.56201 140.772"
   height="140.772"
   width="281.56201"
   y="0px"
   x="0px"
   id="Layer_1"
   version="1.1"><metadata
   id="metadata46"><rdf:RDF><cc:Work
       rdf:about=""><dc:format>image/svg+xml</dc:format><dc:type
         rdf:resource="http://purl.org/dc/dcmitype/StillImage" /><dc:title></dc:title></cc:Work></rdf:RDF></metadata><defs
   id="defs44" />
<linearGradient
   gradientTransform="translate(-265.518,-227.098)"
   y2="256.62311"
   x2="259.6799"
   y1="322.793"
   x1="374.28961"
   gradientUnits="userSpaceOnUse"
   id="SVGID_1_">
	<stop
   id="stop2"
   style="stop-color:#4F00EC"
   offset="0" />
	<stop
   id="stop4"
   style="stop-color:#4E00E3"
   offset="0.1689" />
	<stop
   id="stop6"
   style="stop-color:#4B00CB"
   offset="0.4445" />
	<stop
   id="stop8"
   style="stop-color:#4700A3"
   offset="0.7902" />
	<stop
   id="stop10"
   style="stop-color:#440088"
   offset="1" />
</linearGradient>
<path
   style="fill:url(#SVGID_1_)"
   id="path13"
   d="m 18.707,35.073 v 42.631 c 0,5.305 1.343,10.404 3.884,14.744 5.141,8.771 15.023,20.578 33.226,28.303 18.199,-7.725 28.082,-19.527 33.227,-28.299 2.537,-4.342 3.882,-9.445 3.882,-14.748 V 35.073 C 82.431,32.627 69.227,28.49 55.818,21.538 42.408,28.49 29.203,32.626 18.707,35.073 Z M 72.82,47.851 c 2.279,2.28 3.42,5.061 3.42,8.624 0,5.631 -2.993,8.767 -6.557,10.762 5.773,2.21 9.337,5.56 9.337,12.402 0,9.123 -7.413,13.686 -18.674,13.686 H 36.612 V 43.432 h 23.164 c 5.702,0 10.192,1.568 13.044,4.419 z m -7.484,10.335 c 0,-3.279 -2.566,-5.132 -7.199,-5.132 H 47.304 v 10.548 h 10.12 c 4.847,0 7.912,-1.568 7.912,-5.416 z m 2.779,19.956 c 0,-3.35 -2.494,-5.418 -8.125,-5.418 H 47.303 v 10.977 h 13.043 c 4.847,0 7.769,-1.711 7.769,-5.559 z M 55.816,0 C 29.424,16.685 0,19.414 0,19.414 v 58.291 c 0,8.498 2.154,16.869 6.449,24.197 7.223,12.328 21.736,29.463 49.367,38.852 27.633,-9.389 42.146,-26.523 49.37,-38.852 4.294,-7.328 6.446,-15.699 6.446,-24.197 V 19.414 c 0,0 -29.424,-2.729 -55.816,-19.414 z m 46.108,77.705 c 0,6.902 -1.772,13.574 -5.118,19.301 -6.252,10.66 -18.387,24.898 -40.99,33.439 C 33.212,121.904 21.078,107.666 14.824,96.996 11.477,91.279 9.707,84.607 9.707,77.705 V 27.767 c 10.368,-1.929 28.387,-6.446 46.109,-16.462 17.723,10.016 35.738,14.533 46.108,16.462 z" />
<rect
   id="rect15"
   height="140.76601"
   width="1.699"
   y="0.006003906"
   x="130.07098" />
<g
   transform="translate(-265.518,-227.098)"
   id="g25">
	<path
   id="path17"
   d="m 415.865,261.572 h 19.315 c 4.755,0 8.499,1.308 10.877,3.685 1.901,1.902 2.853,4.22 2.853,7.191 0,4.695 -2.496,7.311 -5.468,8.975 4.814,1.842 7.786,4.636 7.786,10.341 0,7.607 -6.182,11.411 -15.572,11.411 h -19.791 z m 17.355,16.819 c 4.042,0 6.598,-1.308 6.598,-4.517 0,-2.734 -2.14,-4.279 -6.003,-4.279 h -9.034 v 8.796 z m 2.436,16.76 c 4.042,0 6.479,-1.426 6.479,-4.636 0,-2.793 -2.08,-4.517 -6.775,-4.517 h -10.58 v 9.153 z" />
	<path
   id="path19"
   d="m 467.864,270.011 h -12.659 v -8.439 h 34.472 v 8.439 h -12.659 v 33.164 h -9.153 v -33.164 z" />
	<path
   id="path21"
   d="m 493.061,282.373 c 0,-11.827 8.914,-21.515 21.692,-21.515 7.846,0 12.243,2.972 16.106,6.775 l -5.468,6.3 c -3.209,-2.912 -5.943,-4.636 -10.698,-4.636 -7.013,0 -12.064,5.825 -12.064,13.075 0,7.132 4.933,13.076 12.064,13.076 4.755,0 7.667,-1.902 10.936,-4.874 l 5.825,6.24 c -4.279,4.576 -9.034,7.072 -17.058,7.072 -12.243,0.002 -21.335,-9.448 -21.335,-21.513 z" />
	<path
   id="path23"
   d="m 537.451,293.666 h 9.629 v 9.509 h -9.629 z" />
</g>
<g
   transform="translate(-265.518,-227.098)"
   id="g39">
	<path
   id="path27"
   d="m 416.017,330.31 1.288,-1.525 c 1.919,1.735 3.76,2.604 6.31,2.604 2.472,0 4.102,-1.314 4.102,-3.182 0,-1.709 -0.92,-2.682 -4.785,-3.496 -4.232,-0.921 -6.178,-2.288 -6.178,-5.363 0,-2.893 2.55,-5.022 6.047,-5.022 2.682,0 4.601,0.763 6.467,2.262 l -1.209,1.604 c -1.709,-1.394 -3.418,-1.998 -5.311,-1.998 -2.393,0 -3.917,1.314 -3.917,3.023 0,1.735 0.946,2.708 4.995,3.575 4.101,0.895 5.994,2.393 5.994,5.259 0,3.154 -2.629,5.205 -6.283,5.205 -2.92,-0.002 -5.312,-0.975 -7.52,-2.946 z" />
	<path
   id="path29"
   d="m 435.634,314.588 h 13.304 v 1.893 h -11.227 v 6.283 h 10.043 v 1.894 h -10.043 v 6.441 h 11.357 v 1.893 h -13.435 v -18.404 z" />
	<path
   id="path31"
   d="m 454.017,323.789 c 0,-5.205 3.891,-9.517 9.307,-9.517 3.339,0 5.284,1.235 7.125,2.971 l -1.367,1.472 c -1.551,-1.472 -3.286,-2.523 -5.784,-2.523 -4.075,0 -7.125,3.312 -7.125,7.598 0,4.26 3.076,7.599 7.125,7.599 2.524,0 4.181,-0.973 5.941,-2.655 l 1.367,1.445 c -1.919,1.946 -4.022,3.129 -7.361,3.129 -5.311,-10e-4 -9.228,-4.182 -9.228,-9.519 z" />
	<path
   id="path33"
   d="m 475.527,325.288 v -10.7 h 2.077 v 10.568 c 0,3.97 2.104,6.205 5.626,6.205 3.392,0 5.548,-2.051 5.548,-6.073 v -10.7 h 2.077 v 10.542 c 0,5.363 -3.076,8.15 -7.678,8.15 -4.547,0 -7.65,-2.787 -7.65,-7.992 z" />
	<path
   id="path35"
   d="m 497.354,314.588 h 7.914 c 2.261,0 4.075,0.684 5.231,1.84 0.895,0.895 1.42,2.183 1.42,3.681 0,3.05 -2.104,4.838 -4.995,5.363 l 5.652,7.52 h -2.55 l -5.338,-7.151 h -5.258 v 7.151 h -2.077 v -18.404 z m 7.729,9.386 c 2.761,0 4.732,-1.42 4.732,-3.839 0,-2.261 -1.735,-3.628 -4.706,-3.628 h -5.679 v 7.467 z" />
	<path
   id="path37"
   d="m 517.944,314.588 h 13.304 v 1.893 h -11.227 v 6.283 h 10.043 v 1.894 h -10.043 v 6.441 h 11.357 v 1.893 h -13.435 v -18.404 z" />
</g>
</svg>