<?xml version="1.0" standalone="no"?>
<!DOCTYPE svg PUBLIC "-//W3C//DTD SVG 20010904//EN"
 "http://www.w3.org/TR/2001/REC-SVG-20010904/DTD/svg10.dtd">
<svg version="1.0" xmlns="http://www.w3.org/2000/svg"
 width="1128.000000pt" height="1128.000000pt" viewBox="0 0 1128.000000 1128.000000"
 preserveAspectRatio="xMidYMid meet">
<metadata>
Created by potrace 1.11, written by Peter Selinger 2001-2013
</metadata>
<g transform="translate(0.000000,1128.000000) scale(0.100000,-0.100000)"
fill="#000000" stroke="none">
<path d="M5556 11225 c-48 -30 -89 -55 -91 -55 -2 0 -40 -22 -85 -50 -45 -27
-84 -50 -87 -50 -3 0 -17 -9 -33 -20 -15 -11 -30 -17 -34 -13 -3 3 -6 1 -6 -5
0 -7 -4 -12 -9 -12 -5 0 -40 -17 -78 -38 -137 -77 -283 -152 -283 -144 0 4 -4
3 -8 -3 -10 -13 -88 -55 -103 -55 -7 0 -20 -6 -28 -13 -9 -7 -79 -42 -156 -76
-77 -35 -162 -74 -190 -86 -80 -37 -369 -156 -385 -160 -8 -2 -31 -10 -50 -18
-58 -26 -324 -124 -350 -129 -8 -2 -17 -5 -20 -8 -9 -9 -520 -173 -635 -203
-11 -3 -69 -20 -130 -37 -60 -17 -117 -33 -125 -35 -8 -2 -44 -11 -80 -20 -36
-8 -72 -18 -80 -20 -19 -6 -82 -21 -95 -24 -5 -1 -26 -6 -45 -11 -19 -5 -46
-11 -60 -14 -14 -3 -34 -7 -45 -10 -22 -5 -208 -46 -234 -51 -107 -22 -177
-36 -231 -46 -68 -12 -82 -15 -140 -23 -19 -3 -46 -8 -60 -11 -14 -3 -45 -8
-70 -11 -25 -3 -52 -7 -60 -9 -89 -16 -258 -38 -283 -37 -17 1 -17 -107 -14
-2491 2 -1371 7 -2510 10 -2532 3 -22 8 -60 11 -85 10 -95 17 -146 23 -170 3
-14 7 -36 8 -50 3 -28 9 -61 25 -135 6 -27 12 -62 14 -76 2 -15 6 -31 9 -36 3
-5 9 -25 12 -44 6 -35 52 -202 62 -229 4 -8 7 -17 8 -20 8 -33 40 -118 48
-128 5 -6 7 -12 3 -12 -5 0 17 -63 51 -140 8 -19 18 -44 23 -55 4 -11 37 -82
74 -157 36 -75 66 -141 66 -146 0 -6 4 -12 8 -14 5 -1 31 -43 60 -93 75 -131
79 -136 173 -279 76 -116 178 -263 212 -306 7 -9 32 -42 57 -75 25 -33 50 -65
55 -71 6 -6 21 -26 35 -44 14 -18 32 -41 40 -50 8 -10 31 -37 50 -60 48 -58
100 -119 130 -152 14 -15 52 -57 85 -94 85 -95 305 -315 410 -409 49 -44 104
-95 123 -113 18 -17 37 -32 40 -32 4 0 29 -21 55 -45 26 -25 65 -57 85 -72 20
-16 43 -34 50 -40 7 -7 41 -34 75 -60 34 -26 64 -51 65 -55 2 -4 8 -8 14 -8 5
0 16 -7 24 -15 9 -8 46 -36 82 -62 37 -26 69 -51 70 -55 2 -5 10 -8 18 -8 8 0
14 -3 14 -8 0 -4 9 -12 19 -17 11 -6 60 -38 111 -72 50 -35 96 -63 101 -63 5
0 9 -4 9 -9 0 -5 13 -14 29 -21 16 -6 37 -19 48 -28 20 -18 35 -27 112 -69 25
-14 53 -32 62 -39 8 -8 21 -14 27 -14 7 0 12 -3 12 -8 0 -4 15 -14 33 -21 17
-8 70 -37 117 -64 83 -48 541 -277 564 -282 6 -1 38 -14 71 -29 71 -33 123
-55 150 -66 24 -9 118 -48 162 -66 17 -8 33 -14 36 -14 3 0 16 -4 29 -9 13 -5
26 -9 31 -10 4 0 20 -7 35 -14 15 -8 75 -31 134 -51 104 -36 107 -37 145 -21
21 9 38 16 38 15 0 -1 13 3 28 9 16 6 34 11 42 11 8 0 16 4 19 9 3 5 18 12 33
16 16 3 55 17 88 30 33 13 92 36 130 50 39 15 94 38 123 51 29 13 54 24 57 24
2 0 43 18 90 40 47 22 89 40 91 40 3 0 75 34 160 75 85 41 158 75 163 75 5 0
11 3 13 8 2 4 32 22 68 40 36 19 101 54 145 78 44 25 88 47 98 50 9 4 17 10
17 15 0 5 5 9 10 9 10 0 73 36 136 78 10 7 27 15 37 18 9 4 17 10 17 14 0 4
12 12 27 19 37 17 326 211 335 225 4 6 8 8 8 4 0 -4 8 -1 18 7 9 7 75 57 146
110 104 78 234 181 303 240 6 5 33 28 59 50 26 22 58 49 70 60 149 134 208
191 328 312 78 78 166 169 196 204 30 34 70 78 89 98 18 20 47 53 65 75 17 21
37 44 44 52 104 109 477 630 568 794 10 19 21 37 25 40 6 6 61 103 104 185 17
33 37 69 43 80 21 38 72 145 72 153 1 4 11 30 24 57 13 28 30 69 37 93 6 23
15 42 19 42 4 0 7 6 7 13 1 6 15 53 33 102 17 50 33 97 35 105 2 8 16 56 30
105 15 50 28 97 30 106 2 9 13 59 24 110 11 52 23 110 26 129 3 19 8 42 10 50
2 8 7 38 10 65 4 28 8 61 10 75 2 14 6 52 10 85 3 33 9 78 12 100 4 22 8 1158
10 2526 l4 2485 -39 2 c-22 2 -50 5 -63 7 -13 3 -51 8 -84 11 -33 3 -75 10
-93 16 -18 5 -39 7 -47 4 -8 -3 -15 -1 -15 3 0 5 -8 8 -17 7 -10 -2 -49 3 -88
11 -38 7 -83 15 -100 17 -16 3 -30 5 -30 6 0 1 -9 3 -20 5 -100 14 -123 18
-144 26 -13 5 -26 7 -28 5 -3 -3 -15 -1 -27 4 -13 4 -40 11 -62 14 -21 4 -55
11 -74 16 -19 5 -52 11 -74 14 -21 4 -41 8 -45 11 -4 2 -21 7 -37 10 -61 12
-144 32 -254 60 -36 9 -73 18 -84 20 -10 3 -44 12 -75 21 -31 9 -66 18 -78 20
-12 2 -34 9 -49 14 -14 6 -30 8 -35 4 -5 -3 -9 -1 -9 4 0 5 -12 12 -27 15 -57
10 -158 40 -167 48 -6 5 -18 9 -28 9 -15 0 -233 66 -288 87 -8 3 -24 8 -34 10
-11 2 -25 8 -33 14 -7 6 -13 9 -13 6 0 -3 -30 6 -67 20 -38 13 -86 31 -108 38
-51 17 -204 72 -230 84 -11 5 -69 28 -130 51 -60 23 -123 48 -140 55 -16 7
-86 36 -155 65 -69 29 -167 73 -219 97 -52 24 -105 46 -118 49 -12 4 -23 9
-23 14 0 4 -18 12 -40 19 -22 6 -40 16 -40 21 0 6 -6 10 -13 10 -34 0 -498
247 -746 397 -57 35 -107 63 -111 63 -5 0 -10 3 -12 8 -1 4 -17 15 -34 24
l-31 17 -87 -54z m156 -887 c34 -18 65 -35 68 -38 19 -20 646 -330 669 -330 6
0 11 -4 11 -10 0 -5 7 -10 15 -10 8 0 34 -11 57 -24 24 -13 45 -24 48 -24 8
-1 59 -21 113 -45 29 -13 68 -30 87 -37 19 -7 40 -17 46 -22 7 -5 20 -10 30
-12 16 -4 94 -34 169 -67 33 -14 317 -119 365 -135 25 -8 54 -19 65 -24 19 -8
378 -129 400 -134 41 -10 72 -20 80 -25 6 -3 16 -7 23 -8 6 -2 18 -5 25 -6 6
-2 26 -7 42 -11 17 -5 55 -16 85 -26 53 -17 135 -40 145 -41 2 0 28 -7 57 -15
85 -24 197 -54 278 -74 41 -10 93 -23 115 -29 22 -5 51 -12 65 -15 14 -3 34
-7 45 -10 255 -57 330 -74 425 -92 47 -9 89 -20 93 -24 9 -8 11 -4027 2 -4175
-2 -44 -6 -102 -9 -130 -3 -27 -8 -72 -11 -100 -2 -27 -7 -61 -10 -75 -2 -14
-7 -38 -10 -55 -5 -36 -22 -121 -30 -153 -3 -12 -7 -30 -9 -40 -25 -111 -85
-304 -115 -372 -8 -19 -15 -37 -16 -40 -5 -22 -24 -69 -63 -150 -25 -52 -45
-98 -44 -102 1 -5 -2 -8 -7 -8 -5 0 -12 -12 -16 -27 -3 -15 -10 -30 -14 -33
-4 -3 -24 -36 -45 -75 -21 -38 -50 -85 -63 -103 -13 -17 -20 -32 -16 -32 4 0
3 -4 -2 -8 -14 -10 -85 -120 -85 -131 0 -5 -4 -11 -8 -13 -5 -1 -23 -25 -42
-53 -38 -56 -219 -304 -235 -321 -5 -6 -23 -29 -40 -50 -28 -36 -77 -95 -100
-120 -5 -6 -30 -35 -55 -64 -134 -157 -334 -357 -554 -555 -48 -43 -167 -144
-190 -160 -15 -11 -38 -30 -51 -41 -50 -46 -267 -203 -415 -301 -85 -57 -160
-107 -166 -111 -26 -18 -51 -33 -74 -44 -14 -7 -27 -15 -30 -19 -21 -25 -570
-316 -570 -302 0 4 -4 4 -8 -2 -11 -15 -68 -45 -86 -45 -9 0 -16 -4 -16 -9 0
-5 -20 -15 -45 -22 -25 -7 -45 -17 -45 -21 0 -4 -8 -8 -18 -8 -10 0 -26 -6
-37 -13 -23 -16 -288 -123 -325 -132 -22 -5 -132 33 -287 101 -18 8 -49 21
-68 29 -87 37 -122 54 -315 148 -113 54 -207 103 -208 108 -2 5 -7 7 -12 4 -5
-3 -14 0 -22 7 -7 7 -29 21 -48 30 -19 10 -42 22 -50 27 -8 6 -60 36 -115 68
-55 31 -102 60 -105 63 -3 3 -15 11 -27 18 -48 26 -67 37 -77 45 -6 4 -72 49
-146 99 -74 50 -137 95 -138 99 -2 5 -8 9 -12 9 -8 0 -110 73 -150 107 -8 7
-40 32 -70 55 -288 222 -627 548 -870 838 -25 29 -53 62 -63 72 -9 10 -17 21
-17 26 0 4 -8 15 -17 23 -10 9 -25 25 -33 35 -8 11 -36 47 -62 81 -27 34 -48
66 -48 72 0 6 -4 11 -8 11 -8 0 -126 165 -157 218 -5 9 -12 19 -15 22 -13 12
-140 218 -140 227 0 6 -6 15 -13 21 -6 6 -27 39 -45 74 -18 35 -37 70 -42 78
-21 35 -92 196 -120 272 -18 46 -35 92 -40 103 -10 24 -20 58 -19 65 1 3 -5
21 -13 40 -12 28 -30 92 -44 153 -1 4 -2 8 -4 10 -2 3 -10 36 -14 62 -2 11 -6
34 -10 50 -18 82 -21 99 -32 170 -11 73 -14 104 -19 165 -3 30 -7 82 -10 115
-4 55 -6 1196 -5 3386 l0 815 63 13 c34 6 78 14 97 17 19 2 44 7 55 11 11 3
29 7 40 9 27 4 52 10 180 39 61 14 119 28 130 30 37 7 299 73 375 94 39 11
104 29 135 37 11 3 25 6 30 8 6 1 30 8 55 15 25 7 61 18 80 25 19 8 38 14 43
14 17 1 240 69 372 113 57 19 71 24 87 29 4 1 38 13 75 27 37 13 75 26 83 28
8 2 16 4 18 5 1 2 5 3 10 5 4 1 18 6 32 12 14 5 57 21 95 34 39 13 73 28 76
32 3 5 10 8 15 8 10 -1 154 49 169 59 9 6 103 43 115 45 3 1 22 9 44 18 21 9
40 17 41 17 1 0 24 10 51 22 27 12 51 23 54 23 26 7 349 154 473 216 32 16 64
29 71 29 8 0 16 4 18 8 2 4 66 39 143 78 77 38 142 71 145 74 3 3 28 17 55 31
28 14 75 40 105 57 30 17 58 32 62 32 3 0 35 -14 70 -32z"/>
<path d="M5465 9466 c-153 -77 -344 -170 -355 -172 -3 0 -32 -13 -65 -28 -33
-15 -80 -37 -105 -48 -25 -12 -51 -21 -57 -21 -7 0 -13 -4 -13 -9 0 -4 -4 -8
-9 -8 -5 0 -22 -5 -38 -12 -15 -6 -30 -12 -33 -13 -16 -5 -69 -28 -94 -41 -16
-8 -35 -14 -43 -14 -7 0 -13 -4 -13 -10 0 -5 -3 -9 -7 -8 -11 2 -66 -13 -78
-22 -5 -4 -23 -12 -40 -18 -16 -6 -60 -22 -97 -36 -120 -46 -201 -76 -273
-102 -91 -33 -456 -154 -565 -188 -47 -14 -129 -39 -183 -56 -53 -16 -100 -29
-105 -28 -4 0 -14 -2 -22 -5 -36 -15 -318 -89 -335 -88 -2 0 -20 -6 -40 -15
-19 -8 -35 -12 -35 -9 0 2 -11 0 -26 -5 -14 -6 -39 -12 -57 -15 -18 -3 -49
-10 -70 -16 l-38 -10 4 -1832 c1 -1008 6 -1843 9 -1857 4 -14 9 -43 12 -65 8
-68 17 -119 22 -135 3 -8 8 -29 10 -47 4 -33 66 -248 88 -308 34 -89 67 -164
110 -245 27 -52 54 -105 60 -117 6 -13 14 -23 19 -23 4 0 7 -4 7 -10 0 -15
179 -292 193 -298 4 -2 7 -10 7 -18 0 -8 4 -14 8 -14 4 0 16 -14 26 -30 9 -17
28 -43 42 -58 39 -44 44 -51 44 -58 0 -3 12 -21 28 -39 15 -18 41 -49 57 -69
17 -21 40 -48 53 -61 12 -13 22 -26 22 -29 0 -3 10 -16 23 -29 12 -13 65 -70
117 -127 133 -145 216 -226 424 -415 6 -6 34 -28 61 -50 28 -22 57 -47 65 -55
8 -8 33 -29 55 -45 22 -16 45 -34 51 -40 6 -5 23 -19 38 -30 15 -11 37 -28 48
-38 12 -9 24 -17 27 -17 3 0 22 -14 41 -30 19 -16 38 -30 42 -30 4 0 13 -6 20
-12 7 -7 33 -26 58 -43 25 -16 47 -32 50 -35 3 -3 14 -10 25 -17 11 -6 76 -47
144 -90 69 -43 132 -81 140 -86 9 -4 30 -16 46 -27 17 -10 46 -27 65 -37 19
-9 56 -30 83 -45 26 -15 47 -24 47 -20 0 4 4 2 8 -3 14 -21 444 -225 448 -213
0 2 7 -2 15 -8 11 -9 25 -7 62 11 26 13 47 22 47 20 0 -2 31 12 70 31 38 19
73 35 77 36 12 2 281 141 374 193 193 109 481 290 487 307 2 4 8 8 13 8 6 0
27 13 47 28 20 16 84 64 142 107 58 43 107 81 110 84 3 4 21 18 40 33 19 15
49 38 65 53 17 14 55 47 85 73 71 61 174 159 268 252 64 64 114 118 252 270
14 15 39 45 55 65 17 21 53 66 80 100 59 74 85 106 105 135 18 25 87 120 98
135 14 18 118 179 148 228 54 90 62 105 102 179 40 73 100 210 112 250 1 4 13
38 26 75 26 72 63 208 69 255 2 15 6 35 9 45 7 25 15 70 22 123 3 25 7 58 10
75 3 16 7 79 9 139 3 60 7 111 9 114 3 2 1 12 -4 22 -5 10 -6 20 -3 24 3 3 6
27 5 54 -2 62 -3 384 -1 397 2 18 1 80 -1 90 -1 6 -1 15 0 20 4 23 2 94 -4
103 -3 6 -2 13 3 17 7 3 7 15 1 30 -5 13 -5 27 -1 30 5 3 5 21 1 40 -4 19 -4
37 0 40 5 3 5 18 0 34 -4 16 -6 32 -2 35 7 8 7 69 -1 89 -3 9 -2 19 3 22 6 3
6 15 0 29 -5 15 -5 27 3 35 8 8 8 11 -2 11 -7 0 -9 5 -5 12 7 11 9 69 4 93 -1
6 -1 15 0 20 4 23 2 94 -4 103 -3 6 -2 13 3 17 7 3 7 15 1 30 -5 13 -5 27 -1
30 5 3 5 21 1 40 -4 19 -4 37 0 40 5 3 5 18 0 34 -4 16 -6 32 -2 35 7 8 7 69
-1 89 -3 9 -2 19 3 22 6 3 6 15 0 30 -5 13 -6 26 -2 29 4 2 5 90 2 196 -3 105
-3 194 -1 196 7 6 5 69 -2 87 -3 9 -2 19 3 22 6 3 6 15 0 30 -5 14 -5 27 0 30
5 3 5 18 0 34 -4 16 -6 32 -2 35 7 8 7 69 -1 89 -3 9 -2 19 3 22 6 3 6 15 0
30 -5 14 -5 27 0 30 5 3 5 18 0 34 -4 16 -6 32 -2 35 3 4 5 25 4 49 -2 53 -3
379 -1 392 2 18 1 80 -1 90 -1 6 -1 15 0 20 4 23 2 94 -4 103 -3 6 -2 13 3 17
7 3 7 15 1 30 -5 13 -6 26 -2 29 9 5 3 86 -7 87 -3 0 -13 2 -21 4 -140 37
-219 57 -235 60 -45 9 -65 14 -131 34 -38 11 -78 22 -89 24 -11 2 -27 7 -35
10 -8 3 -28 9 -45 13 -16 4 -36 9 -42 11 -7 1 -19 4 -25 6 -7 1 -19 6 -25 10
-7 5 -13 6 -13 2 0 -3 -16 2 -36 10 -20 8 -45 15 -55 15 -11 0 -27 4 -37 10
-9 5 -37 15 -62 22 -53 14 -51 13 -70 21 -17 7 -222 71 -230 72 -4 0 -73 25
-120 42 -8 3 -19 7 -25 8 -25 6 -373 131 -430 154 -11 5 -108 44 -215 87 -107
42 -220 89 -250 103 -30 13 -57 25 -60 26 -14 4 -66 27 -133 59 -41 20 -78 36
-81 36 -3 0 -115 54 -250 120 -135 66 -251 119 -258 119 -7 -1 -85 -38 -173
-83z m-1129 -1668 c34 0 67 2 71 5 5 3 15 2 22 -3 8 -4 27 -4 42 0 16 5 31 5
33 1 3 -4 29 -5 58 -3 29 1 59 3 66 3 34 -1 65 -1 95 2 17 1 42 -1 54 -5 12
-4 25 -3 29 3 3 6 11 6 17 2 7 -5 32 -7 57 -6 25 2 55 3 68 3 12 0 28 0 35 -1
6 0 32 1 57 1 39 0 67 0 178 0 9 0 46 0 82 1 36 0 72 0 80 -1 87 -2 121 -1
129 5 6 3 19 1 30 -4 11 -7 30 -7 50 -1 17 5 33 5 35 1 3 -4 29 -5 58 -3 29 1
59 3 66 3 34 -1 65 -1 95 2 17 1 42 -1 53 -5 12 -3 38 -3 58 2 20 4 36 5 36 1
0 -3 30 -6 68 -7 127 -1 402 -40 437 -62 5 -4 15 -7 20 -7 6 -1 19 -5 30 -9
11 -4 34 -12 50 -18 65 -22 155 -63 155 -70 0 -5 7 -8 15 -8 45 0 255 -175
335 -280 36 -47 97 -158 116 -210 9 -25 20 -54 24 -65 21 -52 44 -225 43 -320
-1 -95 -20 -232 -40 -285 -3 -8 -7 -19 -8 -25 -13 -54 -67 -160 -117 -233 -33
-48 -160 -178 -197 -202 -13 -8 -42 -29 -65 -45 -22 -17 -53 -37 -69 -44 l-27
-15 111 -53 c61 -29 115 -53 120 -53 5 0 9 -4 9 -10 0 -5 5 -10 12 -10 25 0
157 -99 235 -177 46 -45 83 -85 83 -88 0 -4 13 -25 29 -48 25 -36 45 -77 82
-162 15 -36 39 -127 45 -174 3 -25 9 -66 13 -91 11 -76 4 -266 -13 -355 -6
-32 -26 -109 -33 -125 -3 -8 -7 -20 -8 -26 -2 -7 -14 -35 -28 -62 -14 -28 -23
-53 -20 -56 4 -3 1 -6 -5 -6 -7 0 -12 -5 -12 -11 0 -35 -140 -198 -235 -275
-59 -48 -183 -124 -202 -124 -7 0 -13 -4 -13 -10 0 -5 -6 -10 -12 -10 -7 0
-25 -6 -39 -14 -50 -26 -229 -82 -324 -102 -11 -2 -31 -6 -45 -9 -14 -3 -43
-8 -65 -11 -22 -2 -49 -7 -60 -9 -79 -16 -304 -20 -1230 -20 l-1050 0 0 1995
0 1995 69 2 c37 1 70 4 73 7 3 3 10 3 15 -1 6 -3 39 -5 74 -5z"/>
<path d="M4965 6612 c1 -229 3 -420 3 -423 3 -11 1027 -1 1027 11 0 1 9 3 20
4 43 6 91 19 103 28 6 6 12 8 12 4 0 -3 28 8 63 25 62 32 156 113 157 137 0 6
4 12 10 12 5 0 9 3 8 8 0 4 2 14 5 22 32 73 42 210 22 285 -10 38 -49 114 -72
140 -19 21 -126 102 -130 98 -1 -1 -18 4 -38 13 -38 15 -147 43 -180 44 -11 1
-243 3 -516 5 l-496 4 2 -417z"/>
<path d="M5059 5452 l-96 -3 1 -438 0 -438 601 2 c330 1 611 5 625 8 13 4 42
9 64 13 48 7 160 50 201 77 74 49 141 140 162 220 11 39 11 232 0 238 -5 4
-10 15 -11 25 -4 43 -49 109 -112 164 -25 22 -117 74 -133 76 -3 0 -31 8 -63
18 -108 33 -189 37 -703 39 -242 1 -483 1 -536 -1z"/>
</g>
</svg>
